DBRep_DrawableShape

CASCADE Topology V1, (c) Matra-Datavision
Locations 6
1
              1               0               0               0 
              0               1               0               0 
              0               0               1               0 
1
              1               0               0               0 
              0               1               0               0 
              0               0               1               0 
2  1 -1 2 -1 0
1
              1               0               0              60 
              0               1               0              60 
              0               0               1               0 
2  2 1 4 -1 0
2  1 -1 4 -1 0
Curve2ds 30
1 0 0 1 0 
1 0 0 1 0 
1 120 0 0 -1 
1 0 0 0 1 
1 0 -120 1 0 
1 0 0 1 0 
1 0 0 0 -1 
1 0 0 0 1 
1 0 0 0 1 
1 0 0 1 0 
1 0 120 1 0 
1 0 0 1 0 
1 120 0 0 1 
1 0 0 1 0 
1 0 120 1 0 
1 120 0 0 1 
1 120 0 0 1 
1 120 0 0 -1 
2 60 60 1 0 -0 1 10
1 0 120 1 0 
1 0 0 0 1 
1 0 120 1 0 
1 0 120 1 0 
1 0 -120 1 0 
1 120 0 0 1 
1 0 0 0 -1 
2 60 60 1 0 -0 1 10
1 0 0 1 0 
1 6.2831853071795862 -0 0 1 
1 0 -0 0 1 
Curves 15
1 0 0 0 0 0 1 
1 0 0 120 -0 1 0 
1 0 120 0 0 0 1 
1 0 0 0 -0 1 0 
1 0 0 0 1 0 -0 
1 120 0 0 0 0 1 
1 0 0 120 1 0 -0 
1 0 120 120 1 0 -0 
1 120 0 120 0 1 0 
2 0 0 120 0 0 1 1 0 -0 -0 1 0 10
1 0 120 0 1 0 -0 
1 120 120 0 0 0 1 
1 120 0 0 -0 1 0 
2 0 0 0 0 0 1 1 0 -0 -0 1 0 10
1 10 -2.4492935982947065e-15 0 0 0 1 
Polygon3D 0
PolygonOnTriangulations 0
Surfaces 7
1 0 0 0 1 0 -0 0 0 1 0 -1 0 
1 0 0 0 -0 1 0 0 0 1 1 0 -0 
1 0 0 120 0 0 1 1 0 -0 -0 1 0 
1 0 120 0 -0 1 0 0 0 1 1 0 -0 
1 0 0 0 0 0 1 1 0 -0 -0 1 0 
1 120 0 0 1 0 -0 0 0 1 0 -1 0 
2 0 0 0 0 0 1 1 0 -0 -0 1 0 10
Triangulations 0

TShapes 44
Ve
1e-07
0 0 120
0 0

0101101
*
Ve
1e-07
0 0 0
0 0

0101101
*
Ed
 1e-07 1 1 0
1  1 0 0 120
2  1 1 0 0 120
2  2 2 0 0 120
0

0101000
-44 3 +43 3 *
Ve
1e-07
0 120 120
0 0

0101101
*
Ed
 1e-07 1 1 0
1  2 0 0 120
2  3 1 0 0 120
2  4 3 0 0 120
0

0101000
-41 3 +44 3 *
Ve
1e-07
0 120 0
0 0

0101101
*
Ed
 1e-07 1 1 0
1  3 0 0 120
2  5 1 0 0 120
2  6 4 0 0 120
0

0101000
-41 3 +39 3 *
Ed
 1e-07 1 1 0
1  4 0 0 120
2  7 1 0 0 120
2  8 5 0 0 120
0

0101000
-39 3 +43 3 *
Wi

0101000
-42 0 -40 0 +38 0 +37 0 *
Fa
0  1e-07 1 0

0101000
+36 0 *
Ve
1e-07
120 0 0
0 0

0101101
*
Ed
 1e-07 1 1 0
1  5 0 0 120
2  9 2 0 0 120
2  10 5 0 0 120
0

0101000
-34 3 +43 3 *
Ve
1e-07
120 0 120
0 0

0101101
*
Ed
 1e-07 1 1 0
1  6 0 0 120
2  11 2 0 0 120
2  12 6 0 0 120
0

0101000
-32 3 +34 3 *
Ed
 1e-07 1 1 0
1  7 0 0 120
2  13 2 0 0 120
2  14 3 0 0 120
0

0101000
-32 3 +44 3 *
Wi

0101000
-33 0 -31 0 +30 0 +42 0 *
Fa
0  1e-07 2 0

0101000
+29 0 *
Ve
1e-07
120 120 120
0 0

0101101
*
Ed
 1e-07 1 1 0
1  8 0 0 120
2  15 3 0 0 120
2  16 4 0 0 120
0

0101000
-27 3 +41 3 *
Ed
 1e-07 1 1 0
1  9 0 0 120
2  17 3 0 0 120
2  18 6 0 0 120
0

0101000
-27 3 +32 3 *
Wi

0101000
-40 2 -26 2 +30 2 +25 2 *
Ve
1e-07
70 60 120
0 0

0101101
*
Ed
 1e-07 1 1 0
1  10 0 0 6.28318530717959
2  19 3 5 0 6.28318530717959
2  20 7 0 0 6.28318530717959
0

0101100
+23 6 -23 6 *
Wi

0101000
-22 4 *
Fa
0  1e-07 3 2

0101000
+24 0 +21 0 *
Ve
1e-07
120 120 0
0 0

0101101
*
Ed
 1e-07 1 1 0
1  11 0 0 120
2  21 4 0 0 120
2  22 5 0 0 120
0

0101000
-19 3 +39 3 *
Ed
 1e-07 1 1 0
1  12 0 0 120
2  23 4 0 0 120
2  24 6 0 0 120
0

0101000
-27 3 +19 3 *
Wi

0101000
-18 0 -17 0 +26 0 +38 0 *
Fa
0  1e-07 4 0

0101000
+16 0 *
Ed
 1e-07 1 1 0
1  13 0 0 120
2  25 5 0 0 120
2  26 6 0 0 120
0

0101000
-19 3 +34 3 *
Wi

0101000
-37 2 -18 2 +33 2 +14 2 *
Ve
1e-07
70 60 0
0 0

0101101
*
Ed
 1e-07 1 1 0
1  14 0 0 6.28318530717959
2  27 5 5 0 6.28318530717959
2  28 7 0 0 6.28318530717959
0

0101100
+12 6 -12 6 *
Wi

0101000
-11 4 *
Fa
0  1e-07 5 2

0101000
+13 0 +10 0 *
Wi

0101000
-31 0 -25 0 +17 0 +14 0 *
Fa
0  1e-07 6 0

0101000
+8 0 *
Ed
 1e-07 1 1 0
1  15 0 0 120
3  29 30CN 7 0 0 120
0

0101000
-23 6 +12 6 *
Wi

0101000
+6 4 +11 4 -6 4 -22 4 *
Fa
0  1e-07 7 4

0101000
+5 0 *
Sh

0101100
-35 2 -28 2 +20 0 +15 2 -9 0 +7 2 -4 0 *
So

0100000
+3 0 *
Co

1100000
+2 0 *

+1 1 